<svg width="40" height="40" xmlns="http://www.w3.org/2000/svg"><path d="M28.563 7.14H4.285A4.285 4.285 0 0 0 0 11.426v24.28a4.285 4.285 0 0 0 4.285 4.284h24.278a4.285 4.285 0 0 0 4.285-4.285v-24.28a4.285 4.285 0 0 0-4.285-4.284zm1.429 28.564c0 .79-.64 1.429-1.429 1.429H4.285c-.79 0-1.429-.64-1.429-1.429V11.425c0-.788.64-1.428 1.429-1.428h24.278c.79 0 1.429.64 1.429 1.428v24.28z"/><path d="M35.704 0H9.997a4.285 4.285 0 0 0-4.284 4.285 1.428 1.428 0 1 0 2.856 0c0-.79.64-1.429 1.428-1.429h25.707c.79 0 1.429.64 1.429 1.429v25.707a1.43 1.43 0 0 1-1.429 1.428 1.428 1.428 0 1 0 0 2.856 4.285 4.285 0 0 0 4.285-4.284V4.285A4.285 4.285 0 0 0 35.704 0z"/><path d="M22.149 16.904H9.62a1.253 1.253 0 0 0 0 2.505h12.528a1.253 1.253 0 0 0 0-2.505zm1.252 5.637H9.621a1.253 1.253 0 0 0 0 2.506H23.4a1.253 1.253 0 0 0 0-2.506zm-5.637 5.638H9.62a1.253 1.253 0 0 0 0 2.505h8.143a1.253 1.253 0 0 0 0-2.505z"/></svg>
