<svg width="48" height="48" viewBox="0 0 48 48" fill="none" xmlns="http://www.w3.org/2000/svg">
<path fill-rule="evenodd" clip-rule="evenodd" d="M24 48C37.2548 48 48 37.2548 48 24C48 10.7452 37.2548 0 24 0C10.7452 0 0 10.7452 0 24C0 37.2548 10.7452 48 24 48ZM23.8842 15.9349C24.2937 12.5943 27.0704 10 30.4146 10C34.0388 10 36.9999 13.0413 36.9999 16.7855V16.8044C36.9667 18.7923 35.9572 20.5891 34.7591 22.2195C34.5378 22.5207 34.3067 22.8166 34.0731 23.1078V33.0403C34.0715 33.2334 34.0103 33.4209 33.8984 33.5756C33.7866 33.7302 33.6299 33.844 33.4512 33.9003L27.0121 35.9606C26.8452 36.0132 26.6669 36.0132 26.5 35.9606L20.3171 33.9854L14.1342 35.9606C14.0035 36.0017 13.8654 36.0108 13.7307 35.9871C13.5961 35.9634 13.4687 35.9076 13.3586 35.8241C13.2485 35.7406 13.1587 35.6318 13.0965 35.5061C13.0342 35.3805 13.0012 35.2417 13 35.1006V17.8061C12.9997 17.6114 13.0599 17.4218 13.1719 17.2652C13.2839 17.1087 13.4417 16.9935 13.6219 16.9367L20.061 14.8765C20.1146 14.8584 20.1697 14.8458 20.2256 14.8387C20.3427 14.8271 20.4609 14.8399 20.5732 14.8765L23.8842 15.9349ZM35.2438 16.776C35.2388 14.0208 33.0881 11.8145 30.4146 11.8145C27.741 11.8145 25.5903 14.019 25.5853 16.776V16.7855C25.6111 18.13 26.3649 19.6295 27.4603 21.1233C28.1882 22.1158 29.0318 23.0818 29.8486 24.0171C30.0394 24.2355 30.2286 24.4522 30.4146 24.6672C30.569 24.4889 30.7253 24.3094 30.8828 24.1286C31.7272 23.1588 32.6024 22.1539 33.3597 21.1233C34.4574 19.6294 35.2181 18.1292 35.2438 16.7855V16.776ZM27.0488 16.8044C27.0488 14.8944 28.5661 13.3266 30.4146 13.3266C32.2631 13.3266 33.7805 14.8944 33.7805 16.8044C33.7805 18.7144 32.2631 20.2822 30.4146 20.2822C28.5661 20.2822 27.0488 18.7144 27.0488 16.8044ZM32.0244 16.8044C32.0244 15.875 31.314 15.1411 30.4146 15.1411C29.5151 15.1411 28.8049 15.875 28.8049 16.8044C28.8049 17.7337 29.5151 18.4677 30.4146 18.4677C31.314 18.4677 32.0244 17.7337 32.0244 16.8044ZM19.439 32.3693V16.9745L14.7561 18.4677V33.872L19.439 32.3693ZM23.939 17.8439L21.1951 16.9745V32.3693L25.8781 33.8625V21.9643C24.9724 20.6927 24.2099 19.3262 23.939 17.8439ZM28.5469 25.2232C28.2493 24.8844 27.9421 24.5347 27.6341 24.1758V33.8625L32.317 32.3693V25.1775L32.1441 25.3741C31.7642 25.8059 31.3976 26.2225 31.0731 26.614C30.9907 26.7121 30.8889 26.7908 30.7744 26.8447C30.66 26.8986 30.5358 26.9265 30.41 26.9265C30.2843 26.9265 30.16 26.8986 30.0456 26.8447C29.9312 26.7908 29.8293 26.7121 29.7469 26.614C29.3839 26.176 28.9752 25.7108 28.5469 25.2232Z" fill="black"/>
</svg>
