<svg width="80" height="23" viewBox="0 0 80 23" fill="none" xmlns="http://www.w3.org/2000/svg">
<path d="M38.78 9.09C38.3 9.09 37.853 9.012 37.439 8.856C37.031 8.694 36.674 8.469 36.368 8.181C36.068 7.887 35.834 7.542 35.666 7.146C35.498 6.75 35.414 6.318 35.414 5.85C35.414 5.382 35.498 4.95 35.666 4.554C35.834 4.158 36.071 3.816 36.377 3.528C36.683 3.234 37.04 3.009 37.448 2.853C37.856 2.691 38.303 2.61 38.789 2.61C39.305 2.61 39.776 2.7 40.202 2.88C40.628 3.054 40.988 3.315 41.282 3.663L40.526 4.374C40.298 4.128 40.043 3.945 39.761 3.825C39.479 3.699 39.173 3.636 38.843 3.636C38.513 3.636 38.21 3.69 37.934 3.798C37.664 3.906 37.427 4.059 37.223 4.257C37.025 4.455 36.869 4.689 36.755 4.959C36.647 5.229 36.593 5.526 36.593 5.85C36.593 6.174 36.647 6.471 36.755 6.741C36.869 7.011 37.025 7.245 37.223 7.443C37.427 7.641 37.664 7.794 37.934 7.902C38.21 8.01 38.513 8.064 38.843 8.064C39.173 8.064 39.479 8.004 39.761 7.884C40.043 7.758 40.298 7.569 40.526 7.317L41.282 8.037C40.988 8.379 40.628 8.64 40.202 8.82C39.776 9 39.302 9.09 38.78 9.09ZM41.4355 9L44.2705 2.7H45.4225L48.2665 9H47.0425L44.6035 3.321H45.0715L42.6415 9H41.4355ZM42.7405 7.542L43.0555 6.624H46.4575L46.7725 7.542H42.7405ZM49.2416 9V2.7H50.1956L52.9586 7.299H52.4456L55.1636 2.7H56.1176L56.1356 9H55.0196L55.0106 4.437H55.2446L52.9406 8.28H52.4186L50.0786 4.437H50.3486V9H49.2416ZM57.0976 9L59.9326 2.7H61.0846L63.9286 9H62.7046L60.2656 3.321H60.7336L58.3036 9H57.0976ZM58.4026 7.542L58.7176 6.624H62.1196L62.4346 7.542H58.4026ZM64.8947 9V2.7H67.4867C68.0447 2.7 68.5217 2.79 68.9177 2.97C69.3197 3.15 69.6287 3.408 69.8447 3.744C70.0607 4.08 70.1687 4.479 70.1687 4.941C70.1687 5.403 70.0607 5.802 69.8447 6.138C69.6287 6.474 69.3197 6.732 68.9177 6.912C68.5217 7.092 68.0447 7.182 67.4867 7.182H65.5427L66.0647 6.633V9H64.8947ZM66.0647 6.759L65.5427 6.192H67.4327C67.9487 6.192 68.3357 6.084 68.5937 5.868C68.8577 5.646 68.9897 5.337 68.9897 4.941C68.9897 4.539 68.8577 4.23 68.5937 4.014C68.3357 3.798 67.9487 3.69 67.4327 3.69H65.5427L66.0647 3.114V6.759ZM70.1581 9L72.9931 2.7H74.1451L76.9891 9H75.7651L73.3261 3.321H73.7941L71.3641 9H70.1581ZM71.4631 7.542L71.7781 6.624H75.1801L75.4951 7.542H71.4631Z" fill="#FD7F50"/>
<path d="M29.7988 6.61939C29.7298 6.39065 29.4855 6.21269 29.2815 6.21269C28.3982 6.21269 27.515 6.21269 26.6317 6.21269C26.4616 6.21269 26.2639 6.33655 26.1628 6.51024C25.6054 5.00065 24.9643 3.44677 24.3483 2.36943C24.2375 2.17557 24.0705 2.0321 23.8764 1.96408C23.7642 1.92477 21.0635 1 15.4999 1C9.9365 1 7.23585 1.92477 7.12363 1.96408C6.9296 2.0321 6.76256 2.17557 6.65173 2.36951C6.0357 3.44701 5.39461 5.00089 4.83728 6.51032C4.73617 6.33663 4.53839 6.21269 4.36829 6.21269C3.48501 6.21269 2.60179 6.21269 1.71851 6.21269C1.51455 6.21269 1.27021 6.39065 1.20116 6.61939C0.932867 7.50983 0.933006 8.01967 1.20123 8.91019C1.27021 9.13893 1.51455 9.31689 1.71851 9.31689C2.18291 9.31689 2.64725 9.31689 3.11165 9.31689C2.46314 10.0564 2.06085 11.0764 2.06085 12.2021C2.06085 12.2547 2.06397 12.3072 2.07014 12.3594L2.15398 13.0616C2.18187 13.2956 2.27015 13.5047 2.39839 13.6716V15.2683H2.31748C2.12587 15.2683 1.97049 15.4454 1.97049 15.6638V20.3951C1.97049 21.2801 2.60221 22 3.37862 22H6.19427C6.97068 22 7.6024 21.28 7.6024 20.3951V18.3617H23.5421V20.3951C23.5421 21.2801 24.1738 22 24.9503 22H27.7659C28.5424 22 29.174 21.28 29.174 20.3951V15.6638C29.174 15.4454 29.0186 15.2683 28.827 15.2683H28.7461V13.8269C28.9524 13.6451 29.0976 13.3754 29.1351 13.0615L29.2189 12.3593C29.2251 12.3072 29.2282 12.2546 29.2282 12.202C29.2282 11.0763 28.8259 10.0563 28.1773 9.31681C28.5454 9.31681 28.9133 9.31681 29.2813 9.31681C29.4853 9.31681 29.7296 9.13885 29.7986 8.91011C30.0672 8.01967 30.067 7.50983 29.7988 6.61939ZM7.93183 3.76734C8.74995 3.54469 11.2492 2.97838 15.5 2.97838C19.7524 2.97838 22.2521 3.54509 23.0683 3.76726C23.6477 4.86469 24.2567 6.41398 24.7757 7.86678C23.4128 7.61447 20.7283 7.32665 15.5724 7.32665C10.0928 7.32665 7.44737 7.65655 6.20405 7.92333C6.72724 6.45471 7.34452 4.87964 7.93183 3.76734ZM3.12768 17.4784V16.4502H5.59128L5.85145 17.4784H3.12768ZM3.09243 15.2683V13.3245L7.8802 13.6758L8.34738 15.2683H3.09243ZM21.4574 17.3193H9.68729L9.32664 15.9832H21.8181L21.4574 17.3193ZM22.0656 15.2683H9.0791L8.72788 14.0712H22.4167L22.0656 15.2683ZM8.51414 13.3211L8.15556 11.9929H22.9892L22.6306 13.3211H8.51414ZM28.0169 17.4784H25.2931L25.5533 16.4502H28.0168L28.0169 17.4784ZM28.0522 15.2683H22.7973L23.2645 13.6758L28.0522 13.3245V15.2683Z" fill="#FD7F50" stroke="black" stroke-opacity="0.8" stroke-width="0.5" stroke-linecap="round" stroke-linejoin="round"/>
<path d="M35.081 19L37.916 12.7H39.068L41.912 19H40.688L38.249 13.321H38.717L36.287 19H35.081ZM36.386 17.542L36.701 16.624H40.103L40.418 17.542H36.386ZM42.8871 19V12.7H45.7041C46.4121 12.7 46.9641 12.841 47.3601 13.123C47.7561 13.399 47.9541 13.798 47.9541 14.32C47.9541 14.836 47.7651 15.235 47.3871 15.517C47.0091 15.793 46.5111 15.931 45.8931 15.931L46.0551 15.607C46.7571 15.607 47.3001 15.748 47.6841 16.03C48.0681 16.312 48.2601 16.72 48.2601 17.254C48.2601 17.8 48.0591 18.229 47.6571 18.541C47.2551 18.847 46.6611 19 45.8751 19H42.8871ZM44.0391 18.1H45.8391C46.2471 18.1 46.5561 18.025 46.7661 17.875C46.9761 17.719 47.0811 17.482 47.0811 17.164C47.0811 16.846 46.9761 16.615 46.7661 16.471C46.5561 16.321 46.2471 16.246 45.8391 16.246H44.0391V18.1ZM44.0391 15.391H45.6051C45.9831 15.391 46.2711 15.316 46.4691 15.166C46.6671 15.01 46.7661 14.788 46.7661 14.5C46.7661 14.2 46.6671 13.975 46.4691 13.825C46.2711 13.675 45.9831 13.6 45.6051 13.6H44.0391V15.391ZM50.828 19V13.402L51.107 13.69H48.749V12.7H54.077V13.69H51.719L51.989 13.402V19H50.828ZM57.9232 19.09C57.4312 19.09 56.9782 19.009 56.5642 18.847C56.1502 18.685 55.7902 18.46 55.4842 18.172C55.1782 17.878 54.9412 17.536 54.7732 17.146C54.6052 16.75 54.5212 16.318 54.5212 15.85C54.5212 15.382 54.6052 14.953 54.7732 14.563C54.9412 14.167 55.1782 13.825 55.4842 13.537C55.7902 13.243 56.1502 13.015 56.5642 12.853C56.9782 12.691 57.4282 12.61 57.9142 12.61C58.4062 12.61 58.8562 12.691 59.2642 12.853C59.6782 13.015 60.0382 13.243 60.3442 13.537C60.6502 13.825 60.8872 14.167 61.0552 14.563C61.2232 14.953 61.3072 15.382 61.3072 15.85C61.3072 16.318 61.2232 16.75 61.0552 17.146C60.8872 17.542 60.6502 17.884 60.3442 18.172C60.0382 18.46 59.6782 18.685 59.2642 18.847C58.8562 19.009 58.4092 19.09 57.9232 19.09ZM57.9142 18.064C58.2322 18.064 58.5262 18.01 58.7962 17.902C59.0662 17.794 59.3002 17.641 59.4982 17.443C59.6962 17.239 59.8492 17.005 59.9572 16.741C60.0712 16.471 60.1282 16.174 60.1282 15.85C60.1282 15.526 60.0712 15.232 59.9572 14.968C59.8492 14.698 59.6962 14.464 59.4982 14.266C59.3002 14.062 59.0662 13.906 58.7962 13.798C58.5262 13.69 58.2322 13.636 57.9142 13.636C57.5962 13.636 57.3022 13.69 57.0322 13.798C56.7682 13.906 56.5342 14.062 56.3302 14.266C56.1322 14.464 55.9762 14.698 55.8622 14.968C55.7542 15.232 55.7002 15.526 55.7002 15.85C55.7002 16.168 55.7542 16.462 55.8622 16.732C55.9762 17.002 56.1322 17.239 56.3302 17.443C56.5282 17.641 56.7622 17.794 57.0322 17.902C57.3022 18.01 57.5962 18.064 57.9142 18.064Z" fill="black"/>
</svg>
