<svg xmlns="http://www.w3.org/2000/svg" viewBox="0 0 20 21" class="ui-icon base" data-v-fa43769c="">
<path d="M9.4 8.5a2 2 0 10-2 2 2 2 0 002-2zm-3 0a1 1 0 111 1 1 1 0 01-1-1zm6 2a2 2 0 102 2 2 2 0 00-2-2zm0 3a1 1 0 111-1 1 1 0 01-1 1zm.3-6.4a.5.5 0 00-.7 0l-5 6a.5.5 0 00.8.7l5-6a.5.5 0 000-.7zm7.3.2l-2.7-2L16.2 2h-3.4L10 0 7.2 2H3.8l-1 3.2-2.8 2 1 3.3-1 3.2 2.7 2L3.8 19h3.4l2.8 2 2.8-2h3.4l1-3.2 2.8-2-1-3.3zm-1.8 5.9L16 14.9l-1 2.6h-2.7L10 19.2l-2.3-1.7H5l-1-2.6-2.2-1.7.8-2.7-.8-2.7L4 6.1l1-2.6h2.7L10 1.8l2.3 1.7H15l.9 2.6 2.2 1.7-.8 2.7z"  fill-rule="evenodd"></path>
</svg>
