<svg width="142" height="79" viewBox="0 0 142 79" fill="none" xmlns="http://www.w3.org/2000/svg">
<path fill-rule="evenodd" clip-rule="evenodd" d="M138.058 29.993L138.91 27.5026L138.937 27.3977C142.372 16.2041 137.712 10.4107 126.369 8.73294L80.2241 1.07827C77.375 0.606411 74.3928 0.0296898 71.4905 0.00347517C68.4816 -0.0489541 65.3662 0.501553 62.4106 0.999631L15.7067 8.73294C4.33694 10.4369 -0.296174 16.2041 3.13872 27.3977L3.16535 27.5026L4.01741 29.993C0.768909 30.2289 -0.695581 32.562 0.316249 35.6816L4.65646 48.5792V48.6054C5.05587 49.7064 5.40202 50.9123 6.28072 51.7511C7.50556 52.9046 9.36946 52.9308 10.9405 52.9308H11.7126L11.9523 53.6648L11.9789 53.7696C12.6712 55.6309 13.4168 57.4659 14.7215 58.9864C17.2511 61.8962 21.9108 63.2856 25.4788 64.4652L57.4846 75.0559L57.5911 75.0821C60.1739 75.8424 62.7301 76.655 65.3396 77.3104C67.2035 77.7822 69.0408 78.1755 70.9579 78.1755C72.8751 78.1755 74.7922 77.7822 76.6827 77.3104C79.3454 76.6026 82.0082 75.7637 84.6442 74.9773L84.7507 74.9511L116.437 64.4652C120.005 63.2856 124.691 61.8962 127.194 58.9864C128.526 57.4659 129.245 55.6309 129.937 53.7696C129.937 53.7434 129.964 53.691 129.964 53.6648L130.203 52.9308H130.975C132.573 52.9308 134.437 52.8784 135.635 51.7511C136.514 50.9385 136.86 49.7064 137.259 48.6054V48.5792L141.6 35.6816C142.771 32.5358 141.307 30.2289 138.058 29.993ZM16.2659 12.1671L63.023 4.40753C71.0644 3.07058 71.7567 3.20166 79.6383 4.51239L125.783 12.1671C135.129 13.5564 138.298 17.3838 135.529 26.4278L134.33 29.993H132.546L133.904 25.9297C134.65 23.4656 135.449 19.8742 133.904 17.5411C132.28 15.0769 128.233 14.2118 125.49 13.8186H125.464L125.091 13.7661C126.715 14.3429 128.259 15.2604 129.085 16.6498C130.496 19.0615 129.777 22.7053 129.085 25.2481L127.647 29.993H14.3487L12.9109 25.2481C12.2186 22.7053 11.473 19.0353 12.9109 16.6498C13.7629 15.2342 15.2807 14.3429 16.9049 13.7661L16.5321 13.8186H16.5055C13.7896 14.2118 9.71561 15.0769 8.09136 17.5411C6.54699 19.8742 7.3458 23.4656 8.09136 25.9297L9.44934 29.993H7.71858L6.52036 26.4278C3.75114 17.3575 6.91977 13.5564 16.2659 12.1671ZM115.399 61.1884L83.7123 71.6742C69.9461 75.7375 72.1828 75.7375 58.6562 71.7791L26.6504 61.1884C18.2629 58.3572 17.2511 57.6232 15.4404 52.957H17.2511C17.6239 53.9269 18.1031 54.9493 18.7422 55.7095C19.4345 56.496 20.3664 57.0203 21.2984 57.4659C23.1623 58.331 25.2392 59.0126 27.183 59.6417L54.955 68.8168L30.538 59.8514C28.754 59.1961 26.8102 58.5145 25.1061 57.6232C24.2007 57.2038 23.3753 56.5746 22.7363 55.8144C22.1505 55.0542 21.7244 53.9794 21.3516 52.957H120.697C120.351 53.9794 119.898 55.028 119.313 55.8144C118.674 56.5746 117.848 57.2038 116.943 57.6232C115.239 58.5145 113.295 59.1961 111.511 59.8514L87.0939 68.8168L114.866 59.6417C116.81 58.9864 118.913 58.331 120.751 57.4659C121.683 57.0203 122.641 56.496 123.307 55.7095C123.946 54.9755 124.398 53.9532 124.798 52.957H126.582C124.825 57.6232 123.786 58.3572 115.399 61.1884ZM140.215 35.1835L135.875 48.0811C134.943 50.6763 134.89 51.3579 131.082 51.3579H10.9671C7.18604 51.3579 7.10616 50.6763 6.17421 48.0811L1.83399 35.1835C1.22157 33.2698 1.62098 31.5659 4.44345 31.5134H137.605C140.428 31.5659 140.854 33.2698 140.215 35.1835Z" fill="white"/>
<path fill-rule="evenodd" clip-rule="evenodd" d="M122.588 22.9673C103.683 14.1591 77.5081 0.684831 54.662 19.271C64.6472 14.3689 70.7182 12.8222 81.9016 13.53C89.9429 14.0281 97.8778 16.2039 105.706 19.9788C89.5701 23.544 30.7243 14.2902 19.4877 29.4161C30.5379 17.0952 104.854 26.3227 122.588 22.9673Z" fill="white"/>
<path d="M23.2687 39.6659C23.322 39.5086 23.3486 39.3775 23.3752 39.2202C23.5084 37.9095 22.6563 37.1755 20.9788 37.1755C17.1445 37.1755 15.7599 42.1039 15.6001 43.4146C15.467 44.7777 16.0262 45.7739 18.1563 45.7739C20.0735 45.7739 21.3516 44.6467 22.1238 43.2049H27.822C25.8782 47.1371 21.6977 49.4964 16.9315 49.4964C11.8723 49.4964 9.28951 47.2943 9.68892 43.6505C10.3013 37.6474 16.3723 33.4792 22.0971 33.4792C27.1829 33.4792 29.4728 35.3929 29.1267 38.7484C29.1001 39.063 29.0468 39.3775 28.9669 39.6921H23.2687V39.6659Z" fill="white"/>
<path d="M46.5408 33.8462L47.5792 49.0769H41.668L41.6946 47.0584H35.7834L34.3722 49.0769H28.5675L40.4698 33.8462H46.5408ZM41.8278 43.8864V38.4337L38.0734 43.8864H41.8278Z" fill="white"/>
<path d="M57.8041 49.0769H51.8929L57.3248 33.8462H65.8721C71.0111 33.8462 72.875 34.8423 72.662 36.9657C72.449 39.1415 70.7182 41.3174 67.9756 41.8941C69.4135 42.3922 70.1591 42.7854 70.0259 44.2272C69.9194 45.2758 69.0407 47.3205 68.9608 48.1332C68.9342 48.5264 69.0407 48.6312 69.2804 48.6312L69.094 49.1031H63.0763C63.236 47.504 63.9816 45.9573 64.0615 45.1447C64.168 44.1485 63.5555 43.7815 61.5053 43.7815H59.6946L57.8041 49.0769ZM60.8662 40.4261H63.2094C65.2863 40.4261 66.5111 39.8493 66.6443 38.6172C66.7242 37.9095 66.1117 37.4114 64.7271 37.4114H61.9579L60.8662 40.4261Z" fill="white"/>
<path d="M83.4194 33.8462L82.088 43.2572H82.1413L87.6531 33.8462H92.5525L91.3543 43.2572H91.4075L96.7862 33.8462H102.511L92.5791 49.0769H86.7478L87.8129 40.2426H87.7596L82.5673 49.0769H76.736L77.6679 33.8462H83.4194Z" fill="white"/>
<path d="M107.197 49.0769H101.286L106.718 33.8462H112.629L107.197 49.0769Z" fill="white"/>
<path d="M123.946 33.8462L127.434 42.1562L128.446 38.6959L130.176 33.8462H135.848L130.416 49.0769H124.851L121.363 40.7931L120.351 44.2534L118.62 49.0769H112.949L118.381 33.8462H123.946Z" fill="white"/>
<path d="M44.4639 54.7654L44.384 58.9597L47.2864 54.7654H50.455L48.0586 61.4763H45.7154L46.461 59.4316C46.7272 58.6714 47.0734 57.9111 47.4462 57.1771H47.4195L44.4373 61.4763H42.6267L42.7065 57.1509H42.6799C42.5202 57.8325 42.3338 58.5141 42.1207 59.1957L41.3219 61.4763H38.9787L41.3752 54.7654H44.4639Z" fill="white"/>
<path d="M61.0259 57.2559C60.733 60.0085 57.9105 61.66 55.3543 61.66C53.2508 61.66 52.0526 60.7163 52.2123 59.0647C52.4786 56.4957 54.9549 54.582 57.8573 54.582C60.2803 54.6082 61.159 55.8141 61.0259 57.2559ZM54.9017 58.8288C54.8484 59.458 55.0614 60.0085 55.9401 60.0085C57.2182 60.0085 58.23 58.7764 58.3632 57.4394C58.4431 56.7578 58.1502 56.2073 57.2715 56.2073C55.7803 56.2336 55.0082 57.8064 54.9017 58.8288Z" fill="white"/>
<path d="M67.3632 61.5025H64.7537L66.5643 56.3383H64.2212L64.7803 54.7654H72.1028L71.5436 56.3383H69.2004L67.3632 61.5025Z" fill="white"/>
<path d="M82.2477 57.2559C81.9548 60.0085 79.1324 61.66 76.5762 61.66C74.446 61.66 73.2744 60.7163 73.4342 59.0647C73.7004 56.4957 76.1768 54.582 79.0791 54.582C81.5022 54.6082 82.4075 55.8141 82.2477 57.2559ZM76.1235 58.8288C76.0703 59.458 76.2833 60.0085 77.162 60.0085C78.4401 60.0085 79.4519 58.7764 79.585 57.4394C79.6649 56.7578 79.372 56.2073 78.4933 56.2073C77.0288 56.2336 76.23 57.8064 76.1235 58.8288Z" fill="white"/>
<path d="M86.6678 61.5027H84.0584L86.4548 54.7917H90.2359C92.4992 54.7917 93.3246 55.2374 93.2181 56.1811C93.085 57.2559 92.2595 58.1472 91.1412 58.3569C91.7802 58.5667 92.0998 58.7502 92.0465 59.3793C91.9933 59.8512 91.6205 60.7425 91.5672 61.0833C91.5406 61.2406 91.5938 61.293 91.7004 61.293L91.6205 61.5027H88.9844C89.0643 60.7949 89.3838 60.1133 89.4104 59.7463C89.4637 59.3007 89.1708 59.1434 88.2921 59.1434H87.4933L86.6678 61.5027ZM88.0258 57.6754H89.0643C89.9962 57.6754 90.5288 57.4132 90.582 56.8627C90.6086 56.5481 90.3424 56.3384 89.7299 56.3384H88.5051L88.0258 57.6754Z" fill="white"/>
<path d="M100.62 56.7315C100.674 56.2597 100.274 56.1548 99.7683 56.1548C99.1825 56.1548 98.8097 56.3383 98.8097 56.5742C98.7032 57.518 102.697 56.9937 102.511 58.9598C102.325 60.7948 100.141 61.6861 97.8512 61.6861C95.9606 61.6861 94.9488 60.8472 95.0553 59.7724C95.0553 59.6676 95.0819 59.5365 95.1086 59.4316H97.6381C97.6115 59.4579 97.6115 59.5103 97.6115 59.5365C97.5849 59.8511 98.0642 60.1132 98.5701 60.1132C99.2358 60.1132 99.8216 59.9035 99.8482 59.5889C99.9547 58.6452 95.9606 59.2219 96.147 57.2034C96.3334 55.4732 98.3304 54.6082 100.487 54.6082C102.564 54.6082 103.283 55.447 103.177 56.5218C103.177 56.6005 103.15 56.6529 103.123 56.7315H100.62Z" fill="white"/>
</svg>
