<svg xmlns="http://www.w3.org/2000/svg" viewBox="0 0 364.45 87.07"><defs><style>.cls-1{fill:#004637;}.cls-2{fill:#e97424;}.cls-3{fill:#231f20;}</style></defs><g id="Layer_2" data-name="Layer 2"><g id="Layer_1-2" data-name="Layer 1"><path class="cls-1" d="M87.08,43.54A43.61,43.61,0,0,1,47.79,86.87c-1.4.14-2.82.2-4.25.2a42.46,42.46,0,0,1-4.25-.2A43.54,43.54,0,0,1,5.08,23.13l6.37,6.36A34.66,34.66,0,0,0,8.5,43.54a35,35,0,1,0,67.13-14L82,23.13A43.23,43.23,0,0,1,87.08,43.54Z"/><path class="cls-2" d="M77.18,15.92l-6.05,6A35,35,0,0,0,47.79,8.76V78.32a36.25,36.25,0,0,1-8.5,0V8.76A35,35,0,0,0,15.94,22l-6-6A43.5,43.5,0,0,1,39.29.2C40.68.07,42.1,0,43.54,0s2.85.07,4.25.2A43.55,43.55,0,0,1,77.18,15.92Z"/><path class="cls-1" d="M135.8,40.11a12.46,12.46,0,0,1-6.54-1.65A10.94,10.94,0,0,1,125,33.84a15.25,15.25,0,0,1-1.49-6.91A15.24,15.24,0,0,1,125,20a10.94,10.94,0,0,1,4.23-4.62,13.73,13.73,0,0,1,13.09,0A11,11,0,0,1,146.58,20a15.24,15.24,0,0,1,1.49,6.9,15.25,15.25,0,0,1-1.49,6.91,11,11,0,0,1-4.23,4.62A12.5,12.5,0,0,1,135.8,40.11Zm0-4.5a6.85,6.85,0,0,0,4-1,6.38,6.38,0,0,0,2.4-3,12.2,12.2,0,0,0,.8-4.6,12,12,0,0,0-.8-4.57,6.47,6.47,0,0,0-2.4-3,7.26,7.26,0,0,0-4-1.11,6.82,6.82,0,0,0-4,1,6.43,6.43,0,0,0-2.4,3,12.2,12.2,0,0,0-.8,4.6,12,12,0,0,0,.8,4.57,6.42,6.42,0,0,0,2.4,3A7.14,7.14,0,0,0,135.8,35.61Z"/><path class="cls-1" d="M151.58,39.58V14.28h4.78v10.4h11.31V14.28h4.78v25.3h-4.78V29.15H156.36V39.58Z"/><path class="cls-1" d="M177.37,39.58V14.28h16.52v4.46H182.15v5.42h9.63v4.46h-9.63v6.5h11.74v4.46Z"/><path class="cls-1" d="M198.1,39.58V14.28h16.52v4.46H202.88V39.58Z"/><path class="cls-1" d="M228.29,40.11a12.52,12.52,0,0,1-6.55-1.65,11,11,0,0,1-4.23-4.62A15.25,15.25,0,0,1,216,26.93a15.24,15.24,0,0,1,1.49-6.9,11,11,0,0,1,4.23-4.62,13.73,13.73,0,0,1,13.09,0A11,11,0,0,1,239.07,20a15.24,15.24,0,0,1,1.48,6.9,15.25,15.25,0,0,1-1.48,6.91,11,11,0,0,1-4.24,4.62A12.46,12.46,0,0,1,228.29,40.11Zm0-4.5a6.82,6.82,0,0,0,4-1,6.38,6.38,0,0,0,2.4-3,12.2,12.2,0,0,0,.8-4.6,12,12,0,0,0-.8-4.57,6.47,6.47,0,0,0-2.4-3,7.22,7.22,0,0,0-4-1.11,6.85,6.85,0,0,0-4,1,6.55,6.55,0,0,0-2.4,3,12.2,12.2,0,0,0-.8,4.6,12,12,0,0,0,.8,4.57,6.54,6.54,0,0,0,2.4,3A7.18,7.18,0,0,0,228.29,35.61Z"/><path class="cls-1" d="M257,39.58V18.74h-8V14.28h20.74v4.46h-8V39.58Z"/><path class="cls-1" d="M272.53,39.58V14.28h10.68l1,0a8.67,8.67,0,0,1,1.12.11,7.76,7.76,0,0,1,3.71,1.5,6.71,6.71,0,0,1,2.14,2.87,10.51,10.51,0,0,1,.68,3.85,10.32,10.32,0,0,1-.69,3.86A6.82,6.82,0,0,1,289,29.37a7.77,7.77,0,0,1-3.69,1.5c-.33,0-.71.08-1.13.1s-.75,0-1,0H277.3v8.57Zm4.77-13H283c.24,0,.51,0,.81,0a3.8,3.8,0,0,0,.8-.14,2.88,2.88,0,0,0,1.5-.89,3.58,3.58,0,0,0,.73-1.39,5.87,5.87,0,0,0,.2-1.45,5.8,5.8,0,0,0-.2-1.44,3.58,3.58,0,0,0-.73-1.39,2.88,2.88,0,0,0-1.5-.89,3.8,3.8,0,0,0-.8-.14c-.3,0-.57,0-.81,0h-5.7Z"/><path class="cls-1" d="M295.37,39.58V14.28h16.51v4.46H300.14v5.42h9.63v4.46h-9.63v6.5h11.74v4.46Z"/><path class="cls-1" d="M316.1,39.58V14.28H321V31.15l11-16.87h4.85v25.3h-4.85V22.72L321,39.58Zm10.26-27.41a5.4,5.4,0,0,1-2.81-.75,5.75,5.75,0,0,1-2-2,5.34,5.34,0,0,1-.76-2.81h3.69a1.9,1.9,0,1,0,3.79,0h3.69a5.42,5.42,0,0,1-.75,2.81,5.92,5.92,0,0,1-2,2A5.42,5.42,0,0,1,326.36,12.17Z"/><path class="cls-1" d="M340.31,43.8V35.12a3.25,3.25,0,0,0,1.94-.57,4.2,4.2,0,0,0,1.31-1.62,10.21,10.21,0,0,0,.8-2.45,24.19,24.19,0,0,0,.44-3.06c.12-1.4.23-2.79.32-4.15s.19-2.78.28-4.25.2-3.06.32-4.77l16.79,0V35.12h1.94V43.8h-4.78V39.58H345.09V43.8Zm7.13-8.68h10.29V18.74l-7.66,0c-.08,1.16-.14,2.22-.2,3.2s-.11,1.95-.18,2.95-.17,2.11-.28,3.34-.24,2.24-.35,3a8.93,8.93,0,0,1-.54,2.06A8.09,8.09,0,0,1,347.44,35.12Z"/><path class="cls-3" d="M129.66,75.83a5.14,5.14,0,0,1-2.85-.76A4.93,4.93,0,0,1,125,73a7.1,7.1,0,0,1-.63-3.07,7,7,0,0,1,.64-3.08,4.86,4.86,0,0,1,1.83-2.07,5.79,5.79,0,0,1,5.68,0,4.85,4.85,0,0,1,1.82,2.08,7.09,7.09,0,0,1,.62,3.06,7.18,7.18,0,0,1-.63,3.1,4.89,4.89,0,0,1-1.82,2.07A5.22,5.22,0,0,1,129.66,75.83Zm0-1.46a3.25,3.25,0,0,0,2.78-1.24,5.34,5.34,0,0,0,.91-3.22,5.21,5.21,0,0,0-.92-3.23,3.26,3.26,0,0,0-2.77-1.2,3.56,3.56,0,0,0-2.07.57,3.34,3.34,0,0,0-1.21,1.56,6.29,6.29,0,0,0-.4,2.3,5.14,5.14,0,0,0,.94,3.24A3.24,3.24,0,0,0,129.66,74.37Z"/><path class="cls-3" d="M142.55,80.18V75.73a5.07,5.07,0,0,1-3-.35,4.66,4.66,0,0,1-2.14-2,7.8,7.8,0,0,1,0-6.88,4.66,4.66,0,0,1,2.14-2,5.07,5.07,0,0,1,3-.37V60.68H144v3.43a5.08,5.08,0,0,1,3,.37,4.71,4.71,0,0,1,2.14,2,7.8,7.8,0,0,1,0,6.88,4.71,4.71,0,0,1-2.14,2,5.08,5.08,0,0,1-3,.35v4.45Zm0-5.86V65.54a4,4,0,0,0-1.62,0,3.37,3.37,0,0,0-1.4.73,3.83,3.83,0,0,0-1,1.45,6.78,6.78,0,0,0,0,4.33,3.71,3.71,0,0,0,1,1.44,3.24,3.24,0,0,0,1.4.72A4,4,0,0,0,142.55,74.32Zm1.4,0a4,4,0,0,0,1.61-.06,3.24,3.24,0,0,0,1.4-.72,3.6,3.6,0,0,0,1-1.43,5.81,5.81,0,0,0,.36-2.18,6.11,6.11,0,0,0-.35-2.18,3.75,3.75,0,0,0-1-1.43,3.37,3.37,0,0,0-1.4-.73,4,4,0,0,0-1.62,0Z"/><path class="cls-3" d="M161,64.33V75.52h-1.48V66.81l-6.13,8.71h-1.28V64.33h1.48V73l6.14-8.64Z"/><path class="cls-3" d="M173.55,77.45V75.52h-9.62V64.33h1.52v9.73h5.86V64.33h1.52v9.78h2.25v3.34Z"/><path class="cls-3" d="M185.62,64.33V75.52h-1.48V66.81L178,75.52h-1.29V64.33h1.48V73l6.15-8.64Z"/><path class="cls-3" d="M191.72,75.83a4.4,4.4,0,0,1-2.12-.46,3.12,3.12,0,0,1-1.28-1.21,3.32,3.32,0,0,1-.42-1.65,3.1,3.1,0,0,1,.37-1.56,3.07,3.07,0,0,1,1-1.06,5.37,5.37,0,0,1,1.48-.63c.56-.14,1.19-.26,1.88-.37s1.36-.2,2-.28,1.23-.15,1.73-.23l-.54.33a3.63,3.63,0,0,0-.64-2.45,2.94,2.94,0,0,0-2.34-.8,3.43,3.43,0,0,0-1.94.52,2.79,2.79,0,0,0-1.12,1.63l-1.48-.43a4,4,0,0,1,1.55-2.33,5.06,5.06,0,0,1,3-.83,5.41,5.41,0,0,1,2.61.58A3.18,3.18,0,0,1,197,66.26a3.56,3.56,0,0,1,.27,1.09,12.16,12.16,0,0,1,.06,1.22v7H196V72.71l.39.17a4.4,4.4,0,0,1-1.77,2.19A5.24,5.24,0,0,1,191.72,75.83Zm.18-1.32a4.32,4.32,0,0,0,1.86-.38,3.4,3.4,0,0,0,1.28-1,3.57,3.57,0,0,0,.64-1.51,6.09,6.09,0,0,0,.13-1.18c0-.44,0-.76,0-1l.58.3-1.68.2c-.61.07-1.2.15-1.78.24s-1.11.2-1.58.32a4.35,4.35,0,0,0-.92.38,2.08,2.08,0,0,0-.73.65,1.69,1.69,0,0,0-.29,1,1.93,1.93,0,0,0,.25.95,1.89,1.89,0,0,0,.78.75A3,3,0,0,0,191.9,74.51Z"/><path class="cls-3" d="M199,75.52V74.18a1.44,1.44,0,0,0,.95-.06,1,1,0,0,0,.48-.58,5.77,5.77,0,0,0,.26-1c.11-.67.21-1.42.3-2.23s.17-1.72.24-2.7.15-2.07.23-3.26h7.6V75.52h-1.51V65.79h-4.69c0,.73-.1,1.46-.16,2.19s-.13,1.42-.19,2.08-.14,1.28-.22,1.84-.15,1-.23,1.45a5,5,0,0,1-.5,1.47,1.46,1.46,0,0,1-.9.73A3.73,3.73,0,0,1,199,75.52Z"/><path class="cls-3" d="M212,75.52l0-11.19h1.53v4.22h2.62c.32,0,.64,0,1,0a6.32,6.32,0,0,1,.83.08,4.37,4.37,0,0,1,1.48.55,2.66,2.66,0,0,1,1,1.09,3.62,3.62,0,0,1,.37,1.74A3.32,3.32,0,0,1,220,74.3a3.4,3.4,0,0,1-1.87,1.07,6.22,6.22,0,0,1-.92.12q-.5,0-1,0Zm1.51-1.31h2.69c.24,0,.5,0,.79,0a3.39,3.39,0,0,0,.77-.11,2.26,2.26,0,0,0,1-.63,2,2,0,0,0,.45-1.42,1.86,1.86,0,0,0-1.6-2.06,4.57,4.57,0,0,0-.69-.1l-.72,0h-2.69Z"/><path class="cls-3" d="M222.7,75.52V64.33h1.52v4.86h6.31V64.33h1.52V75.52h-1.52V70.65h-6.31v4.87Z"/><path class="cls-3" d="M235,75.52l0-11.19h1.53v4.22h1.95c.32,0,.64,0,1,0a6.67,6.67,0,0,1,.84.08,4.54,4.54,0,0,1,1.47.56,2.79,2.79,0,0,1,1,1.08,3.62,3.62,0,0,1,.37,1.74,3.27,3.27,0,0,1-.75,2.27,3.4,3.4,0,0,1-1.87,1.07,6.22,6.22,0,0,1-.92.12l-1,0Zm1.51-1.31h2c.23,0,.49,0,.78,0a3.48,3.48,0,0,0,.77-.11,2.23,2.23,0,0,0,1-.63A2,2,0,0,0,241.5,72a2.07,2.07,0,0,0-.44-1.43A2.1,2.1,0,0,0,239.9,70a4.91,4.91,0,0,0-.7-.1l-.71,0h-2Zm7.94,1.31V64.33h1.52V75.52Z"/><path class="cls-3" d="M257.72,64.33V75.52h-1.49V66.81l-6.13,8.71h-1.28V64.33h1.48V73l6.14-8.64ZM253.47,63a2.54,2.54,0,0,1-1.35-.37,2.73,2.73,0,0,1-1-1,2.65,2.65,0,0,1-.35-1.34h1.26a1.4,1.4,0,0,0,1.41,1.41,1.37,1.37,0,0,0,1-.41,1.39,1.39,0,0,0,.41-1h1.26a2.56,2.56,0,0,1-.36,1.34,2.63,2.63,0,0,1-1,1A2.54,2.54,0,0,1,253.47,63Z"/><path class="cls-3" d="M263.93,78V74.21a1.54,1.54,0,0,0,1.37-.61,5.69,5.69,0,0,0,.67-2c.12-.58.21-1.22.29-1.89s.14-1.45.2-2.33.1-1.89.15-3.07H274v9.88h1.07V78h-1.47V75.52h-8.22V78Zm2.58-3.79h6V65.64H268c0,.52,0,1.08-.09,1.66s-.08,1.18-.13,1.76-.11,1.14-.18,1.66a12.53,12.53,0,0,1-.23,1.35,10.33,10.33,0,0,1-.34,1.27A2.14,2.14,0,0,1,266.51,74.21Z"/><path class="cls-3" d="M286,64.33V75.52h-1.48V66.81l-6.13,8.71h-1.29V64.33h1.49V73l6.14-8.64Z"/><path class="cls-3" d="M287.91,75.52V74.18a1.4,1.4,0,0,0,.94-.06,1,1,0,0,0,.49-.58,5.85,5.85,0,0,0,.25-1c.11-.67.22-1.42.3-2.23s.18-1.72.25-2.7.14-2.07.22-3.26H298V75.52h-1.51V65.79h-4.68c0,.73-.1,1.46-.17,2.19s-.12,1.42-.19,2.08-.13,1.28-.21,1.84-.16,1-.24,1.45a5,5,0,0,1-.49,1.47,1.48,1.48,0,0,1-.91.73A3.69,3.69,0,0,1,287.91,75.52Z"/><path class="cls-3" d="M305.6,75.83a5.31,5.31,0,0,1-2.84-.73,5,5,0,0,1-1.86-2,6.76,6.76,0,0,1-.66-3.08,7.2,7.2,0,0,1,.65-3.17,4.86,4.86,0,0,1,1.84-2.06,5.22,5.22,0,0,1,2.8-.73,5,5,0,0,1,2.83.76A4.75,4.75,0,0,1,310.13,67a8.05,8.05,0,0,1,.55,3.39h-1.55v-.54a5.29,5.29,0,0,0-.94-3.28,3.17,3.17,0,0,0-2.62-1.11,3.37,3.37,0,0,0-2.76,1.17,5.18,5.18,0,0,0-.95,3.33,5.07,5.07,0,0,0,.95,3.28,3.32,3.32,0,0,0,2.72,1.17,3.92,3.92,0,0,0,2.1-.56,3.74,3.74,0,0,0,1.41-1.6l1.42.55A5,5,0,0,1,308.51,75,5.36,5.36,0,0,1,305.6,75.83Zm-4.28-5.48V69.07h8.54v1.28Z"/><path class="cls-3" d="M313,80.49V64.33h1.37v8.42h.16v7.74Zm5-4.66a4.3,4.3,0,0,1-2.61-.78,4.82,4.82,0,0,1-1.61-2.13,8.57,8.57,0,0,1,0-6,4.81,4.81,0,0,1,1.63-2.09,4.49,4.49,0,0,1,2.66-.77,4.44,4.44,0,0,1,2.63.78,4.92,4.92,0,0,1,1.68,2.11,7.4,7.4,0,0,1,.58,3,7.3,7.3,0,0,1-.59,3,5.09,5.09,0,0,1-1.69,2.12A4.54,4.54,0,0,1,318,75.83Zm-.15-1.42a3.11,3.11,0,0,0,1.94-.59A3.54,3.54,0,0,0,321,72.21a7,7,0,0,0,0-4.57A3.54,3.54,0,0,0,319.79,66a3.62,3.62,0,0,0-3.93,0,3.48,3.48,0,0,0-1.15,1.58,7.27,7.27,0,0,0,0,4.64,3.49,3.49,0,0,0,1.16,1.6A3.18,3.18,0,0,0,317.84,74.41Z"/><path class="cls-3" d="M331.89,75.52,333.57,72l-5.3-11.38H330l4.41,9.75,4.49-9.75h1.63l-6.94,14.92Z"/><path class="cls-3" d="M339.8,75.52l5.13-14.92h2l5.14,14.92h-1.58l-4.88-14.07h.6l-4.85,14.07Zm2.28-3.62V70.47h7.71V71.9Z"/><path class="cls-3" d="M358.31,75.83a7,7,0,0,1-2.63-.45,5.29,5.29,0,0,1-1.83-1.17,5.14,5.14,0,0,1-1.07-1.58l1.39-.81A3.65,3.65,0,0,0,355,73.1a3.77,3.77,0,0,0,1.39.93,5.54,5.54,0,0,0,2,.34,4.87,4.87,0,0,0,2.05-.39,2.84,2.84,0,0,0,1.28-1.07,3,3,0,0,0,.44-1.62,2.32,2.32,0,0,0-.49-1.57,2.65,2.65,0,0,0-1.31-.8,7.67,7.67,0,0,0-1.82-.26l-1.08,0h-.62V67.14h1.61a3.86,3.86,0,0,0,2.33-.78,2.59,2.59,0,0,0-.05-3.88,3.64,3.64,0,0,0-2.31-.71,3.86,3.86,0,0,0-2.26.64,4.74,4.74,0,0,0-1.49,1.7l-1.25-.92a5.79,5.79,0,0,1,2-2.07,5.6,5.6,0,0,1,3.05-.81,6.39,6.39,0,0,1,1.81.26,4.79,4.79,0,0,1,1.53.77,3.68,3.68,0,0,1,1.06,1.28,4.48,4.48,0,0,1-.15,3.92,3.55,3.55,0,0,1-1.37,1.35,3.38,3.38,0,0,1,1.78,1.2,3.62,3.62,0,0,1,.65,2.25,4.18,4.18,0,0,1-.67,2.38,4.35,4.35,0,0,1-1.9,1.57A6.93,6.93,0,0,1,358.31,75.83Z"/></g></g></svg>