<svg width="38" height="38" fill="none" xmlns="http://www.w3.org/2000/svg"><path fill-rule="evenodd" clip-rule="evenodd" d="M0 7.172A7.172 7.172 0 017.172 0h8.885v6.957H10.17a3.106 3.106 0 00-3.105 3.106v5.994H0V7.172z" fill="#0AF"/><path fill-rule="evenodd" clip-rule="evenodd" d="M7.065 27.401a3.106 3.106 0 003.105 3.106h5.887V38H7.172A7.172 7.172 0 010 30.828v-8.885h7.065v5.458z" fill="#A169F7"/><path fill-rule="evenodd" clip-rule="evenodd" d="M30.828 0A7.172 7.172 0 0138 7.172v8.885h-7.386v-5.994a3.106 3.106 0 00-3.105-3.106h-5.566V0h8.885z" fill="#FF6163"/><path fill-rule="evenodd" clip-rule="evenodd" d="M27.509 30.507a3.106 3.106 0 003.105-3.106v-5.458H38v8.885A7.172 7.172 0 0130.828 38h-8.885v-7.493h5.566z" fill="#97CF26"/></svg>